<?xml version="1.0" encoding="UTF-8" standalone="no"?>
<!-- Created with Inkscape (http://www.inkscape.org/) -->

<svg
   width="512"
   height="512"
   viewBox="0 0 135.46666 135.46667"
   version="1.1"
   id="svg5"
   inkscape:version="1.1.1 (3bf5ae0d25, 2021-09-20)"
   sodipodi:docname="logo.svg"
   inkscape:export-filename="/home/abraham/Documents/paul-bot/logo.png"
   inkscape:export-xdpi="96"
   inkscape:export-ydpi="96"
   xmlns:inkscape="http://www.inkscape.org/namespaces/inkscape"
   xmlns:sodipodi="http://sodipodi.sourceforge.net/DTD/sodipodi-0.dtd"
   xmlns:xlink="http://www.w3.org/1999/xlink"
   xmlns="http://www.w3.org/2000/svg"
   xmlns:svg="http://www.w3.org/2000/svg">
  <sodipodi:namedview
     id="namedview7"
     pagecolor="#ffffff"
     bordercolor="#111111"
     borderopacity="1"
     inkscape:pageshadow="0"
     inkscape:pageopacity="1"
     inkscape:pagecheckerboard="false"
     inkscape:document-units="px"
     showgrid="false"
     units="px"
     width="512px"
     inkscape:snap-page="true"
     showguides="false"
     inkscape:guide-bbox="true"
     inkscape:snap-smooth-nodes="true"
     inkscape:object-paths="true"
     inkscape:snap-intersection-paths="true"
     inkscape:snap-midpoints="true"
     inkscape:snap-object-midpoints="true"
     inkscape:snap-center="true"
     inkscape:snap-text-baseline="true"
     inkscape:snap-bbox="true"
     inkscape:bbox-paths="true"
     inkscape:bbox-nodes="true"
     inkscape:snap-bbox-edge-midpoints="true"
     inkscape:snap-bbox-midpoints="true"
     inkscape:zoom="0.58488225"
     inkscape:cx="-262.44599"
     inkscape:cy="236.7998"
     inkscape:window-width="1874"
     inkscape:window-height="1056"
     inkscape:window-x="46"
     inkscape:window-y="24"
     inkscape:window-maximized="1"
     inkscape:current-layer="layer1">
    <sodipodi:guide
       position="26.458333,28.442705"
       orientation="1,0"
       id="guide2072" />
    <sodipodi:guide
       position="30.427082,109.00834"
       orientation="0,-1"
       id="guide2112" />
    <sodipodi:guide
       position="26.458333,107.02396"
       orientation="0,-1"
       id="guide2114" />
    <sodipodi:guide
       position="28.442708,109.00833"
       orientation="1,0"
       id="guide2116" />
    <sodipodi:guide
       position="30.427082,26.458336"
       orientation="0,-1"
       id="guide2194" />
    <sodipodi:guide
       position="26.458333,28.442705"
       orientation="0,-1"
       id="guide2234" />
    <sodipodi:guide
       position="34.395831,94.777722"
       orientation="1,0"
       id="guide3712" />
    <sodipodi:guide
       position="26.458332,105.03959"
       orientation="0,-1"
       id="guide4228" />
    <sodipodi:guide
       position="67.733332,109.00834"
       orientation="1,0"
       id="guide4559" />
    <sodipodi:guide
       position="63.764581,109.00835"
       orientation="1,0"
       id="guide4675" />
    <sodipodi:guide
       position="65.748955,109.00835"
       orientation="1,0"
       id="guide4829" />
    <sodipodi:guide
       position="67.73333,88.106252"
       orientation="0,-1"
       id="guide5249" />
    <sodipodi:guide
       position="67.73333,86.121882"
       orientation="0,-1"
       id="guide5251" />
    <sodipodi:guide
       position="67.733329,84.137511"
       orientation="0,-1"
       id="guide5329" />
    <sodipodi:guide
       position="109.00833,80.168752"
       orientation="1,0"
       id="guide5749" />
    <sodipodi:guide
       position="109.00833,80.168752"
       orientation="0,-1"
       id="guide5751" />
    <sodipodi:guide
       position="105.03958,80.168752"
       orientation="1,0"
       id="guide6399" />
    <sodipodi:guide
       position="107.02395,80.168752"
       orientation="1,0"
       id="guide6439" />
    <sodipodi:guide
       position="109.00833,76.200002"
       orientation="0,-1"
       id="guide6517" />
    <sodipodi:guide
       position="109.00833,78.184377"
       orientation="0,-1"
       id="guide6519" />
    <sodipodi:guide
       position="109.00833,55.297918"
       orientation="0,-1"
       id="guide6711" />
    <sodipodi:guide
       position="109.00833,59.531251"
       orientation="0,-1"
       id="guide7055" />
    <sodipodi:guide
       position="109.00833,57.414585"
       orientation="0,-1"
       id="guide7057" />
    <sodipodi:guide
       position="87.732113,51.32917"
       orientation="0,-1"
       id="guide7477" />
    <sodipodi:guide
       position="87.312496,51.32917"
       orientation="1,0"
       id="guide7613" />
    <sodipodi:guide
       position="83.343746,51.32917"
       orientation="1,0"
       id="guide7805" />
    <sodipodi:guide
       position="85.328121,51.32917"
       orientation="1,0"
       id="guide7883" />
    <sodipodi:guide
       position="87.312496,47.360418"
       orientation="0,-1"
       id="guide8151" />
    <sodipodi:guide
       position="87.312496,49.344794"
       orientation="0,-1"
       id="guide8153" />
    <sodipodi:guide
       position="87.312496,30.427086"
       orientation="0,-1"
       id="guide8383" />
    <sodipodi:guide
       position="38.364582,109.00835"
       orientation="1,0"
       id="guide8765" />
    <sodipodi:guide
       position="36.380206,109.00835"
       orientation="1,0"
       id="guide8805" />
    <sodipodi:guide
       position="34.395829,82.153135"
       orientation="0,-1"
       id="guide9326" />
  </sodipodi:namedview>
  <defs
     id="defs2">
    <linearGradient
       inkscape:collect="always"
       id="linearGradient13768">
      <stop
         style="stop-color:#43b581;stop-opacity:1"
         offset="0"
         id="stop13764" />
      <stop
         style="stop-color:#f44648;stop-opacity:1"
         offset="1"
         id="stop13766" />
    </linearGradient>
    <linearGradient
       inkscape:collect="always"
       id="linearGradient9571">
      <stop
         style="stop-color:#f6a719;stop-opacity:1"
         offset="0"
         id="stop9567" />
      <stop
         style="stop-color:#43b581;stop-opacity:1"
         offset="1"
         id="stop9569" />
    </linearGradient>
    <linearGradient
       inkscape:collect="always"
       xlink:href="#linearGradient9571"
       id="linearGradient9573"
       x1="34.395828"
       y1="51.329155"
       x2="34.395832"
       y2="55.297916"
       gradientUnits="userSpaceOnUse" />
    <linearGradient
       inkscape:collect="always"
       xlink:href="#linearGradient13768"
       id="linearGradient12652"
       gradientUnits="userSpaceOnUse"
       x1="34.395828"
       y1="51.329155"
       x2="34.395832"
       y2="55.297916"
       gradientTransform="translate(2.9723629e-7,28.839579)" />
  </defs>
  <g
     inkscape:label="Layer 1"
     inkscape:groupmode="layer"
     id="layer1">
    <path
       id="rect1060"
       style="fill:#6f85d5;stroke-width:0.869133"
       d="M 115 100 C 107.5 99.99997 100 107.49999 100 115 L 100 397 C 100 404.50002 107.5 412 115 412 C 122.5 412 130 404.50002 130 397 L 130 115 C 130 107.49999 122.5 99.99997 115 100 z "
       transform="scale(0.26458333)" />
    <g
       id="g15745"
       transform="translate(3.968751)">
      <path
         id="rect3630"
         style="fill:#f6a719;stroke-width:1.13936"
         d="m 34.395831,30.427075 c 0,-1.98437 1.984375,-3.96875 3.968752,-3.968742 l 25.4,-9e-6 c 1.984372,10e-7 3.968749,1.984381 3.968749,3.968751 v 16.933341 c 0,1.984367 -1.984377,3.968738 -3.968751,3.968738 l -29.368749,3e-6 z"
         sodipodi:nodetypes="cccccccc" />
      <path
         id="rect3923"
         style="fill:#43b581;stroke-width:0.919629"
         d="m 34.395832,55.297916 h 70.643748 c 1.98437,-3e-6 3.96875,1.984372 3.96875,3.96875 v 16.66875 c 0,2.116664 -1.98438,4.233331 -3.96875,4.233331 l -70.643748,2e-6 z"
         sodipodi:nodetypes="ccccccc" />
      <path
         id="rect3923-3"
         style="fill:#f44648;stroke-width:0.750777"
         d="m 34.395832,84.137497 h 48.947917 c 1.984372,-2e-6 3.968747,1.984374 3.96875,3.968752 v 16.933331 c -3e-6,1.98438 -1.984378,3.96875 -3.968753,3.96875 h -44.98853 c -1.97501,0 -3.959385,-1.98437 -3.959385,-3.96875 z"
         sodipodi:nodetypes="cccccccc" />
      <path
         style="fill:url(#linearGradient9573);fill-opacity:1;stroke:none;stroke-width:0.264583px;stroke-linecap:butt;stroke-linejoin:miter;stroke-opacity:1"
         d="m 34.39583,51.329153 v 3.96876 l 3.968753,3e-6 c 0,0 -1.984377,-3e-6 -1.984377,-1.984386 0,-1.984381 1.984377,-1.984375 1.984377,-1.984375 z"
         id="path9258"
         sodipodi:nodetypes="cccscc" />
      <path
         style="fill:url(#linearGradient12652);fill-opacity:1;stroke:none;stroke-width:0.264583px;stroke-linecap:butt;stroke-linejoin:miter;stroke-opacity:1"
         d="m 34.395829,80.168732 v 3.96876 l 3.968753,3e-6 c 0,0 -1.984377,-3e-6 -1.984377,-1.984386 0,-1.984381 1.984377,-1.984375 1.984377,-1.984375 z"
         id="path9258-5"
         sodipodi:nodetypes="cccscc" />
    </g>
    <g
       aria-label="Paul"
       id="text2627"
       style="font-size:22.196px;line-height:1.25;fill:#ffffff;stroke-width:0.554899">
      <path
         d="m 63.684803,66.896617 q 0,0.964572 -0.238434,1.723224 -0.238434,0.758653 -0.650273,1.343899 -0.401002,0.574408 -0.932059,0.986248 -0.531057,0.41184 -1.116303,0.671949 -0.574408,0.260109 -1.170492,0.379326 -0.585246,0.119217 -1.105465,0.119217 h -6.372679 v -2.817852 h 6.372679 q 0.541895,-0.04335 0.97541,-0.216757 0.444354,-0.184245 0.758653,-0.487705 0.314299,-0.303461 0.487705,-0.726139 0.173406,-0.433516 0.173406,-0.97541 v -1.278871 q -0.05419,-0.531057 -0.227596,-0.97541 -0.173406,-0.444354 -0.476867,-0.758653 -0.292623,-0.314299 -0.715301,-0.487705 -0.422677,-0.184244 -0.97541,-0.184244 h -6.351003 q -0.563571,0 -0.856194,0.292623 -0.292623,0.292623 -0.292623,0.845356 V 75.935417 H 48.154106 V 64.349713 q 0,-1.083789 0.390164,-1.842442 0.401002,-0.758652 0.986248,-1.224681 0.596084,-0.46603 1.289709,-0.67195 0.693625,-0.216757 1.278871,-0.216757 h 6.372679 q 0.953735,0 1.712387,0.249271 0.758652,0.238434 1.33306,0.650274 0.585247,0.401001 0.986248,0.932058 0.41184,0.531057 0.67195,1.116303 0.270947,0.574408 0.390164,1.170492 0.119217,0.585246 0.119217,1.105465 z"
         style="font-family:Audiowide;-inkscape-font-specification:Audiowide;stroke-width:0.5549"
         id="path232" />
      <path
         d="m 77.51395,72.055452 q 0,0.585247 -0.20592,1.268034 -0.20592,0.671949 -0.671949,1.257195 -0.455192,0.574408 -1.203006,0.964572 -0.736977,0.390164 -1.79909,0.390164 h -5.082971 q -0.585246,0 -1.268033,-0.20592 -0.671949,-0.20592 -1.257195,-0.661111 -0.574408,-0.466029 -0.964572,-1.203006 -0.390164,-0.747814 -0.390164,-1.809928 0,-0.585246 0.20592,-1.268033 0.20592,-0.682787 0.661111,-1.257195 0.466029,-0.585246 1.203006,-0.97541 0.747814,-0.390164 1.809927,-0.390164 h 5.082971 v 2.687797 h -5.082971 q -0.574408,0 -0.888707,0.35765 -0.314298,0.346813 -0.314298,0.867031 0,0.552733 0.35765,0.867031 0.368488,0.303461 0.867031,0.303461 h 5.061295 q 0.574408,0 0.888707,-0.346812 0.314299,-0.346813 0.314299,-0.867031 v -3.934154 q 0,-0.552733 -0.346813,-0.87787 -0.335974,-0.325136 -0.856193,-0.325136 H 67.44555 v -2.676959 h 6.188435 q 0.585246,0 1.257195,0.20592 0.682787,0.20592 1.257195,0.671949 0.585247,0.455191 0.975411,1.203006 0.390164,0.736976 0.390164,1.79909 z"
         style="font-family:Audiowide;-inkscape-font-specification:Audiowide;stroke-width:0.5549"
         id="path234" />
      <path
         d="m 92.730349,74.515654 q 0,0.30346 -0.108379,0.56357 -0.108379,0.260109 -0.303461,0.455191 -0.184244,0.184244 -0.444353,0.292623 -0.249272,0.108379 -0.541895,0.108379 h -6.372679 q -0.520219,0 -1.116303,-0.119217 -0.585246,-0.119216 -1.159654,-0.379326 -0.574408,-0.270947 -1.116303,-0.671949 -0.531057,-0.41184 -0.932058,-0.986248 -0.401002,-0.585246 -0.650274,-1.343898 -0.238433,-0.758653 -0.238433,-1.712387 v -6.502734 h 2.817851 v 6.502734 q 0,0.552732 0.184244,0.997086 0.195082,0.433515 0.520219,0.747814 0.325137,0.314299 0.758652,0.487705 0.444354,0.162569 0.953735,0.162569 h 4.93124 v -8.897908 h 2.817851 z"
         style="font-family:Audiowide;-inkscape-font-specification:Audiowide;stroke-width:0.5549"
         id="path236" />
      <path
         d="m 100.52279,75.935417 h -1.257194 q -0.606922,0 -1.300547,-0.20592 -0.682787,-0.20592 -1.278871,-0.671949 -0.596084,-0.476867 -0.986248,-1.224682 -0.390164,-0.758652 -0.390164,-1.853279 V 59.266742 h 2.817851 v 12.712845 q 0,0.520219 0.325137,0.834518 0.325136,0.303461 0.812842,0.303461 h 1.257194 z"
         style="font-family:Audiowide;-inkscape-font-specification:Audiowide;stroke-width:0.5549"
         id="path238" />
    </g>
  </g>
</svg>
